<svg
			width="149"
			height="33"
			viewBox="0 0 149 33"
			fill="none"
			xmlns="http://www.w3.org/2000/svg"
			className={className}
		>
			<circle cx="16.056" cy="16.056" r="16.056" fill={textColor} />
			<ellipse
				cx="2.007"
				cy="2.007"
				rx="2.007"
				ry="2.007"
				transform="matrix(1 0 0 -1 14.0488 21.4082)"
				fill={dotsColor}
			/>
			<circle
				cx="2.007"
				cy="2.007"
				r="2.007"
				transform="matrix(1 0 0 -1 14.0488 12.7114)"
				fill={dotsColor}
			/>
			<ellipse
				cx="2.007"
				cy="2.007"
				rx="2.007"
				ry="2.007"
				transform="matrix(1 0 0 -1 14.0488 8.36279)"
				fill={dotsColor}
			/>
			<ellipse
				cx="2.007"
				cy="2.007"
				rx="2.007"
				ry="2.007"
				transform="matrix(1 0 0 -1 18.3975 17.0044)"
				fill={dotsColor}
			/>
			<ellipse
				cx="2.007"
				cy="2.00701"
				rx="2.007"
				ry="2.00701"
				transform="matrix(1 0 0 -1 18.3975 12.6558)"
				fill={dotsColor}
			/>
			<ellipse
				cx="2.007"
				cy="2.007"
				rx="2.007"
				ry="2.007"
				transform="matrix(1 0 0 -1 22.7461 25.7012)"
				fill={dotsColor}
			/>
			<ellipse
				cx="2.007"
				cy="2.007"
				rx="2.007"
				ry="2.007"
				transform="matrix(1 0 0 -1 22.7461 21.3525)"
				fill={dotsColor}
			/>
			<ellipse
				cx="2.007"
				cy="2.007"
				rx="2.007"
				ry="2.007"
				transform="matrix(1 0 0 -1 18.3975 21.3525)"
				fill={dotsColor}
			/>
			<ellipse
				cx="2.007"
				cy="2.007"
				rx="2.007"
				ry="2.007"
				transform="matrix(1 0 0 -1 9.70068 17.0044)"
				fill={dotsColor}
			/>
			<ellipse
				cx="2.007"
				cy="2.00701"
				rx="2.007"
				ry="2.00701"
				transform="matrix(1 0 0 -1 9.70068 12.6558)"
				fill={dotsColor}
			/>
			<ellipse
				cx="2.007"
				cy="2.007"
				rx="2.007"
				ry="2.007"
				transform="matrix(1 0 0 -1 5.35205 25.7012)"
				fill={dotsColor}
			/>
			<ellipse
				cx="2.007"
				cy="2.007"
				rx="2.007"
				ry="2.007"
				transform="matrix(1 0 0 -1 5.35205 21.3525)"
				fill={dotsColor}
			/>
			<ellipse
				cx="2.007"
				cy="2.007"
				rx="2.007"
				ry="2.007"
				transform="matrix(1 0 0 -1 9.70068 21.3525)"
				fill={dotsColor}
			/>
			<path
				d="M52.0437 21.5973H42.5426L41.2259 24.4374H37.25L45.6151 6.36475H48.9713L57.3366 24.4374H53.3605L52.0437 21.5973ZM44.2209 17.9829H50.3655L47.2931 11.3217L44.2209 17.9829Z"
				fill={textColor}
			/>
			<path d="M62.0064 6.36475V24.4374H58.5728V6.36475H62.0064Z" fill={textColor} />
			<path
				d="M64.4746 29.6007V11.528H67.8825V13.3354C68.3458 12.6825 68.956 12.1475 69.6639 11.7734C70.4372 11.3741 71.2981 11.1745 72.1682 11.1925C72.944 11.1895 73.7125 11.3431 74.4274 11.6443C75.1413 11.9456 75.7836 12.3943 76.312 12.961C76.878 13.5771 77.3128 14.3018 77.5901 15.091C78.2096 16.969 78.2096 18.9962 77.5901 20.8741C77.3139 21.6611 76.8838 22.3852 76.3249 23.0041C75.8061 23.5704 75.1724 24.0194 74.4661 24.3209C73.7559 24.6228 72.9915 24.7765 72.2198 24.7726C71.204 24.7726 70.3392 24.5618 69.6252 24.1401C68.9418 23.7466 68.3482 23.2145 67.8825 22.5782V29.6007H64.4746ZM71.1614 21.4421C71.6204 21.4465 72.0761 21.3633 72.504 21.1969C72.9054 21.0411 73.2702 20.8037 73.5753 20.4997C73.8844 20.1864 74.1261 19.813 74.2854 19.4026C74.6295 18.4872 74.6295 17.478 74.2854 16.5625C74.1259 16.1523 73.8842 15.779 73.5753 15.4654C73.27 15.1618 72.9052 14.9244 72.504 14.7682C72.076 14.6021 71.6204 14.5189 71.1614 14.523C70.7175 14.5101 70.2754 14.5856 69.861 14.7451C69.4465 14.9047 69.0679 15.145 68.7473 15.4523C68.1019 16.0721 67.7792 16.9156 67.7793 17.9827C67.7793 19.0669 68.102 19.9146 68.7473 20.5258C69.3986 21.1392 70.267 21.4689 71.1614 21.4421V21.4421Z"
				fill={textColor}
			/>
			<path
				d="M83.2179 6.36475V13.3872C83.637 12.744 84.1977 12.2053 84.8573 11.8124C85.5197 11.4167 86.333 11.2187 87.2972 11.2186C88.8116 11.2186 89.9518 11.679 90.7179 12.5998C91.4838 13.5206 91.8668 14.7986 91.8668 16.4338V24.4374H88.3814V17.2857C88.3814 16.3562 88.1792 15.6591 87.7747 15.1944C87.3701 14.7298 86.7892 14.4975 86.032 14.4975C85.0509 14.4975 84.3366 14.8374 83.8891 15.5172C83.4413 16.1973 83.2176 17.1138 83.2179 18.2668V24.4374H79.8101V6.36475H83.2179Z"
				fill={textColor}
			/>
			<path
				d="M93.8625 14.1616C94.2821 13.1912 95.0451 12.4098 96.0051 11.9671C97.0033 11.4854 98.2082 11.2444 99.6198 11.2441C101.513 11.2441 102.929 11.6658 103.867 12.5091C104.805 13.3528 105.274 14.6782 105.274 16.4852V24.463H101.866V22.7074C101.473 23.2699 100.967 23.7446 100.381 24.1015C99.736 24.5146 98.9055 24.7211 97.8899 24.7211C97.2917 24.7276 96.6971 24.6271 96.1343 24.4243C95.6247 24.2409 95.1556 23.9602 94.7531 23.5979C94.3657 23.245 94.0576 22.8139 93.8493 22.333C93.6287 21.8149 93.5188 21.2564 93.5268 20.6934C93.5188 20.1484 93.6243 19.6077 93.8364 19.1056C94.0367 18.6413 94.3312 18.2237 94.7015 17.8794C95.0846 17.5268 95.5256 17.243 96.0051 17.0403C96.5307 16.8186 97.0888 16.6835 97.6576 16.6402L101.195 16.3303C101.642 16.2787 101.866 16.1065 101.866 15.8138V15.6073C101.864 15.4185 101.814 15.2334 101.719 15.0704C101.623 14.9073 101.487 14.772 101.324 14.6778C100.962 14.437 100.394 14.3166 99.6198 14.3165C99.2821 14.316 98.9451 14.3462 98.6129 14.4068C98.2931 14.4649 97.9811 14.5603 97.6834 14.6909C97.399 14.8144 97.1372 14.9845 96.9089 15.1942C96.6793 15.4091 96.5026 15.6742 96.3924 15.9688L93.8625 14.1616ZM101.866 18.7055L98.6645 19.0927C98.1307 19.179 97.7305 19.3469 97.464 19.5963C97.3323 19.7203 97.2286 19.871 97.1598 20.0382C97.0909 20.2054 97.0584 20.3854 97.0645 20.5662C97.0706 20.7469 97.1151 20.9243 97.1951 21.0865C97.2751 21.2487 97.3887 21.392 97.5284 21.5069C97.8384 21.7565 98.2945 21.8813 98.8968 21.8813C99.3159 21.8864 99.7321 21.8119 100.123 21.6616C100.471 21.5292 100.791 21.3321 101.065 21.0807C101.32 20.8455 101.522 20.5597 101.659 20.2417C101.798 19.9196 101.868 19.5724 101.866 19.2219V18.7055Z"
				fill={textColor}
			/>
			<path
				d="M120.563 6.36475V24.4374H117.155V22.63C116.692 23.283 116.082 23.818 115.373 24.192C114.6 24.5912 113.739 24.7909 112.869 24.7729C112.089 24.7786 111.316 24.6248 110.597 24.3211C109.888 24.0178 109.25 23.5693 108.725 23.0043C108.159 22.3883 107.725 21.6637 107.448 20.8743C106.828 18.9964 106.828 16.9692 107.448 15.0913C107.724 14.3044 108.154 13.5803 108.712 12.9613C109.231 12.395 109.865 11.9461 110.572 11.6445C111.282 11.3425 112.046 11.1888 112.818 11.1928C113.833 11.1928 114.698 11.4036 115.412 11.8252C116.095 12.2192 116.689 12.7512 117.155 13.3872V6.36475H120.563ZM113.876 14.5233C113.417 14.5191 112.962 14.6023 112.534 14.7685C112.132 14.9246 111.767 15.162 111.462 15.4657C111.153 15.779 110.911 16.1524 110.752 16.5628C110.408 17.4782 110.408 18.4874 110.752 19.4029C110.911 19.8134 111.153 20.1868 111.462 20.5C111.767 20.804 112.132 21.0414 112.534 21.1972C112.962 21.3636 113.417 21.4468 113.876 21.4424C114.32 21.4553 114.762 21.3798 115.177 21.2202C115.591 21.0607 115.969 20.8203 116.29 20.5131C116.935 19.8933 117.258 19.0499 117.258 17.9829C117.258 16.8985 116.936 16.0507 116.29 15.4396C115.639 14.8264 114.77 14.4968 113.876 14.5233Z"
				fill={textColor}
			/>
			<path
				d="M122.171 17.9831C122.16 17.0402 122.34 16.1049 122.7 15.2333C123.034 14.4263 123.53 13.6969 124.159 13.0904C124.791 12.4886 125.537 12.0191 126.353 11.7092C128.137 11.0553 130.094 11.0553 131.878 11.7092C132.694 12.0191 133.44 12.4887 134.072 13.0904C134.701 13.6969 135.197 14.4264 135.531 15.2333C136.237 17.003 136.237 18.976 135.531 20.7456C135.195 21.5475 134.699 22.2723 134.072 22.8756C133.44 23.4775 132.694 23.9471 131.878 24.2569C130.094 24.9107 128.137 24.9107 126.353 24.2569C125.537 23.9472 124.791 23.4776 124.159 22.8756C123.532 22.2724 123.036 21.5476 122.7 20.7456C122.337 19.8703 122.157 18.9304 122.171 17.9831V17.9831ZM132.549 17.9831C132.556 17.5017 132.468 17.0237 132.291 16.5759C132.128 16.1681 131.882 15.7989 131.568 15.4916C131.253 15.1875 130.88 14.9504 130.471 14.7945C129.597 14.4675 128.634 14.4675 127.76 14.7945C127.351 14.9502 126.978 15.1874 126.663 15.4916C126.349 15.7987 126.103 16.168 125.94 16.5759C125.596 17.4824 125.596 18.4836 125.94 19.3902C126.102 19.7981 126.349 20.1675 126.663 20.4744C126.977 20.779 127.351 21.0162 127.76 21.1716C128.634 21.4985 129.597 21.4985 130.471 21.1716C130.88 21.016 131.254 20.7788 131.568 20.4744C131.882 20.1673 132.128 19.798 132.291 19.3902C132.468 18.9424 132.556 18.4645 132.549 17.9831H132.549Z"
				fill={textColor}
			/>
			<path
				d="M137.128 17.983C137.116 17.0328 137.291 16.0896 137.645 15.2074C137.966 14.4005 138.454 13.6706 139.077 13.0655C139.7 12.4604 140.443 11.9937 141.259 11.6962C142.143 11.3706 143.079 11.2088 144.022 11.2186C144.975 11.2041 145.922 11.375 146.81 11.7219C147.601 12.0351 148.321 12.5049 148.927 13.1032L146.991 15.8399C146.619 15.4711 146.192 15.162 145.726 14.9235C145.196 14.6633 144.612 14.5348 144.022 14.5491C143.563 14.5449 143.107 14.6281 142.679 14.7943C142.278 14.9505 141.913 15.1878 141.608 15.4915C141.3 15.8016 141.059 16.1703 140.898 16.5757C140.554 17.4823 140.554 18.4835 140.898 19.39C141.059 19.7956 141.3 20.1644 141.608 20.4743C141.913 20.7783 142.277 21.0157 142.679 21.1715C143.107 21.3379 143.563 21.4211 144.022 21.4167C144.625 21.4281 145.223 21.2954 145.764 21.0294C146.245 20.7904 146.685 20.4767 147.068 20.0999L148.953 22.8368C148.349 23.4222 147.64 23.8867 146.861 24.2052C145.945 24.5806 144.961 24.765 143.97 24.7472C143.036 24.7556 142.109 24.5937 141.233 24.2696C140.422 23.9716 139.683 23.5053 139.064 22.9013C138.453 22.2939 137.97 21.5695 137.645 20.7713C137.289 19.8854 137.113 18.9375 137.128 17.983V17.983Z"
				fill={textColor}
			/>
		</svg>